<?xml version="1.0" encoding="UTF-8" standalone="no"?>
<svg
	xmlns:svg="http://www.w3.org/2000/svg"
	xmlns="http://www.w3.org/2000/svg"
	version="1.1"
	width="510"
	height="540"
	viewBox="245 215 510 540">
	<title>One Percent Rule</title>
	<circle
		cx="500"
		cy="500"
		r="250"
		style="fill:#85bbfd;stroke:none" />
	<path
		d="M 500,250 500,500 515.6875,250.5 C 510.50166,250.17904 505.26668,250 500,250 z"
		style="fill:#fcf12d;stroke:none" />
	<path
		d="M 515.6875,250.5 500,500 646.9375,297.75 C 609.6445,270.6097 564.5784,253.52589 515.6875,250.5 z"
		style="fill:#d24b49;stroke:none" />
	<g id="pointers" style="fill:black;stroke:none">
		<path
			d="M 687.62574,312.1524 A 0.50005,0.50005 0 0 0 687.02912,312.26289 L 667.18594,332.10607 C 666.41897,331.653 665.41427,331.75642 664.75526,332.41543 663.97421,333.19648 663.97421,334.46281 664.75526,335.24386 665.53631,336.02491 666.80264,336.02491 667.58369,335.24386 668.2427,334.58485 668.34612,333.58015 667.89305,332.81318 L 687.73623,312.97 A 0.50005,0.50005 0 0 0 687.66994,312.1966 0.50005,0.50005 0 0 0 687.62574,312.1524 z" />
		<path
			d="M 508.18336,234.6261 A 0.50005,0.50005 0 0 0 507.82407,235.11506 L 506.94261,263.16371 C 506.07336,263.35846 505.41176,264.12162 505.38249,265.05314 505.34779,266.15716 506.21465,267.08028 507.31868,267.11497 508.4227,267.14967 509.34582,266.2828 509.38051,265.17878 509.40979,264.24726 508.79741,263.44407 507.94211,263.19512 L 508.82358,235.14647 A 0.50005,0.50005 0 0 0 508.24583,234.62806 0.50005,0.50005 0 0 0 508.18336,234.6261 z" />
		<path
			d="M 586.29032,248.9139 A 0.50005,0.50005 0 0 0 585.80252,249.27475 L 576.66626,275.80836 C 575.7783,275.73736 574.92062,276.27075 574.61719,277.15195 574.25758,278.19634 574.8127,279.33451 575.85709,279.69413 576.90149,280.05374 578.03965,279.49862 578.39927,278.45422 578.70269,277.57302 578.35521,276.62467 577.61178,276.13393 L 586.74803,249.60032 A 0.50005,0.50005 0 0 0 586.34942,248.93425 0.50005,0.50005 0 0 0 586.29032,248.9139 z" />
	</g>
	<g id="texts" style="font-size:20px;font-weight:bold;text-align:center;text-anchor:middle;fill:black;stroke:none;font-family:Arial,sans-serif">
		<text x="506" y="232.5">Creators</text>
		<text x="610" y="248.0">Contributors</text>
		<text x="704" y="310.2">Lurkers</text>
	</g>
</svg>
